<svg xmlns="http://www.w3.org/2000/svg" width="240" height="240" viewBox="0 0 240 240">
    <defs><linearGradient id="bg" x1="0" y1="0" x2="1" y2="1"><stop stop-color="#0f3c84"/><stop offset=".55" stop-color="#081020"/><stop offset="1" stop-color="#02040a"/></linearGradient><radialGradient id="glow"><stop stop-color="#60a5fa" stop-opacity=".45"/><stop offset="1" stop-color="#60a5fa" stop-opacity="0"/></radialGradient></defs>
    <rect width="240" height="240" rx="44" fill="url(#bg)"/><circle cx="174" cy="48" r="83" fill="url(#glow)"/><path d="M0 194C48 172 82 178 120 198c42 22 82 21 120-1v43H0Z" fill="#fff" opacity=".035"/>
    <path d="M43 224c4-49 27-74 77-74s74 25 78 74Z" fill="#0f3c84"/><path d="M88 155l32 27 32-27 14 8-17 61H91l-17-61Z" fill="#60a5fa" opacity=".7"/><text x="120" y="213" text-anchor="middle" font-size="31" font-weight="900" fill="#fff" opacity=".88">11</text>
    <rect x="105" y="132" width="30" height="37" rx="13" fill="#5b3829"/>
    <ellipse cx="120" cy="96" rx="55" ry="64" fill="#5b3829"/>
    <ellipse cx="64" cy="102" rx="9" ry="15" fill="#5b3829"/><ellipse cx="176" cy="102" rx="9" ry="15" fill="#5b3829"/>
    <path d="M63 83c3-33 25-50 57-50s54 17 57 50c-15-14-30-19-57-19s-42 5-57 19Z" fill="#080b12"/><path d="M68 78c3-20 10-34 24-42l-13 40Z" fill="#05070c" opacity=".7"/>
    <path d="M91 93q10-7 20 0M129 93q10-7 20 0" fill="none" stroke="#20140f" stroke-width="4" stroke-linecap="round"/>
    <ellipse cx="101" cy="101" rx="3.6" ry="4.5" fill="#090b10"/><ellipse cx="139" cy="101" rx="3.6" ry="4.5" fill="#090b10"/>
    <path d="M120 104q-5 14 2 19" fill="none" stroke="#5b3428" stroke-opacity=".55" stroke-width="3" stroke-linecap="round"/>
    <path d="M100 133q20 15 40 0" fill="none" stroke="#3b1718" stroke-width="4" stroke-linecap="round"/>
    <path d="M102 136q18 8 36 0" fill="none" stroke="#fff" stroke-opacity=".55" stroke-width="2" stroke-linecap="round"/>
    <circle cx="202" cy="202" r="18" fill="#020617" fill-opacity=".6" stroke="#60a5fa" stroke-opacity=".65"/><path d="m193 202 6 6 12-14" fill="none" stroke="#60a5fa" stroke-width="4" stroke-linecap="round" stroke-linejoin="round"/>
    </svg>