<svg xmlns="http://www.w3.org/2000/svg" width="240" height="240" viewBox="0 0 240 240">
    <defs><linearGradient id="bg" x1="0" y1="0" x2="1" y2="1"><stop stop-color="#0369a1"/><stop offset=".55" stop-color="#081020"/><stop offset="1" stop-color="#02040a"/></linearGradient><radialGradient id="glow"><stop stop-color="#22d3ee" stop-opacity=".45"/><stop offset="1" stop-color="#22d3ee" stop-opacity="0"/></radialGradient></defs>
    <rect width="240" height="240" rx="44" fill="url(#bg)"/><circle cx="174" cy="48" r="83" fill="url(#glow)"/><path d="M0 194C48 172 82 178 120 198c42 22 82 21 120-1v43H0Z" fill="#fff" opacity=".035"/>
    <path d="M38 224c5-50 31-75 82-75 52 0 78 25 83 75Z" fill="#0369a1"/><path d="M95 151c3 19 14 29 25 29s22-10 25-29" fill="none" stroke="#fff" stroke-opacity=".18" stroke-width="6"/>
    <rect x="105" y="132" width="30" height="37" rx="13" fill="#8d5c48"/>
    <ellipse cx="120" cy="96" rx="55" ry="64" fill="#8d5c48"/>
    <ellipse cx="64" cy="102" rx="9" ry="15" fill="#8d5c48"/><ellipse cx="176" cy="102" rx="9" ry="15" fill="#8d5c48"/>
    <path d="M59 83c1-37 25-59 62-59 36 0 62 22 63 59-11-13-27-22-63-22-34 0-50 8-62 22Z" fill="#111827"/><rect x="64" y="58" width="10" height="54" rx="5" transform="rotate(12 64 58)" fill="#111827"/><rect x="82" y="44" width="10" height="54" rx="5" transform="rotate(5 82 44)" fill="#111827"/><rect x="101" y="38" width="10" height="54" rx="5" transform="rotate(-2 101 38)" fill="#111827"/><rect x="126" y="38" width="10" height="54" rx="5" transform="rotate(3 126 38)" fill="#111827"/><rect x="149" y="46" width="10" height="54" rx="5" transform="rotate(-7 149 46)" fill="#111827"/><rect x="169" y="60" width="10" height="54" rx="5" transform="rotate(-12 169 60)" fill="#111827"/>
    <path d="M91 93q10-7 20 0M129 93q10-7 20 0" fill="none" stroke="#20140f" stroke-width="4" stroke-linecap="round"/>
    <ellipse cx="101" cy="101" rx="3.6" ry="4.5" fill="#090b10"/><ellipse cx="139" cy="101" rx="3.6" ry="4.5" fill="#090b10"/>
    <path d="M120 104q-5 14 2 19" fill="none" stroke="#5b3428" stroke-opacity=".55" stroke-width="3" stroke-linecap="round"/>
    <path d="M100 133q20 15 40 0" fill="none" stroke="#3b1718" stroke-width="4" stroke-linecap="round"/>
    <path d="M102 136q18 8 36 0" fill="none" stroke="#fff" stroke-opacity=".55" stroke-width="2" stroke-linecap="round"/>
    <circle cx="202" cy="202" r="18" fill="#020617" fill-opacity=".6" stroke="#22d3ee" stroke-opacity=".65"/><path d="m193 202 6 6 12-14" fill="none" stroke="#22d3ee" stroke-width="4" stroke-linecap="round" stroke-linejoin="round"/>
    </svg>