<svg xmlns="http://www.w3.org/2000/svg" width="240" height="240" viewBox="0 0 240 240">
    <defs><linearGradient id="bg" x1="0" y1="0" x2="1" y2="1"><stop stop-color="#111827"/><stop offset=".55" stop-color="#081020"/><stop offset="1" stop-color="#02040a"/></linearGradient><radialGradient id="glow"><stop stop-color="#3b82f6" stop-opacity=".45"/><stop offset="1" stop-color="#3b82f6" stop-opacity="0"/></radialGradient></defs>
    <rect width="240" height="240" rx="44" fill="url(#bg)"/><circle cx="174" cy="48" r="83" fill="url(#glow)"/><path d="M0 194C48 172 82 178 120 198c42 22 82 21 120-1v43H0Z" fill="#fff" opacity=".035"/>
    <path d="M34 224c6-53 32-78 86-78 55 0 81 26 86 78Z" fill="#111827"/><path d="M76 162l44 43 45-43" fill="none" stroke="#3b82f6" stroke-opacity=".75" stroke-width="12" stroke-linecap="round"/>
    <rect x="105" y="132" width="30" height="37" rx="13" fill="#d2a17f"/>
    <ellipse cx="120" cy="96" rx="55" ry="64" fill="#d2a17f"/>
    <ellipse cx="64" cy="102" rx="9" ry="15" fill="#d2a17f"/><ellipse cx="176" cy="102" rx="9" ry="15" fill="#d2a17f"/>
    <circle cx="70" cy="72" r="19" fill="#20151d"/><circle cx="91" cy="50" r="19" fill="#20151d"/><circle cx="119" cy="44" r="19" fill="#20151d"/><circle cx="148" cy="51" r="19" fill="#20151d"/><circle cx="169" cy="73" r="19" fill="#20151d"/><circle cx="82" cy="88" r="19" fill="#20151d"/><circle cx="156" cy="89" r="19" fill="#20151d"/>
    <path d="M91 93q10-7 20 0M129 93q10-7 20 0" fill="none" stroke="#20140f" stroke-width="4" stroke-linecap="round"/>
    <ellipse cx="101" cy="101" rx="3.6" ry="4.5" fill="#090b10"/><ellipse cx="139" cy="101" rx="3.6" ry="4.5" fill="#090b10"/>
    <path d="M120 104q-5 14 2 19" fill="none" stroke="#5b3428" stroke-opacity=".55" stroke-width="3" stroke-linecap="round"/>
    <path d="M100 133q20 15 40 0" fill="none" stroke="#3b1718" stroke-width="4" stroke-linecap="round"/>
    <path d="M102 136q18 8 36 0" fill="none" stroke="#fff" stroke-opacity=".55" stroke-width="2" stroke-linecap="round"/>
    <circle cx="202" cy="202" r="18" fill="#020617" fill-opacity=".6" stroke="#3b82f6" stroke-opacity=".65"/><path d="m193 202 6 6 12-14" fill="none" stroke="#3b82f6" stroke-width="4" stroke-linecap="round" stroke-linejoin="round"/>
    </svg>