<svg xmlns="http://www.w3.org/2000/svg" width="240" height="240" viewBox="0 0 240 240">
    <defs><linearGradient id="bg" x1="0" y1="0" x2="1" y2="1"><stop stop-color="#0c4a6e"/><stop offset=".55" stop-color="#081020"/><stop offset="1" stop-color="#02040a"/></linearGradient><radialGradient id="glow"><stop stop-color="#67e8f9" stop-opacity=".45"/><stop offset="1" stop-color="#67e8f9" stop-opacity="0"/></radialGradient></defs>
    <rect width="240" height="240" rx="44" fill="url(#bg)"/><circle cx="174" cy="48" r="83" fill="url(#glow)"/><path d="M0 194C48 172 82 178 120 198c42 22 82 21 120-1v43H0Z" fill="#fff" opacity=".035"/>
    <path d="M36 224c6-52 31-76 84-76 52 0 78 25 84 76Z" fill="#0c4a6e"/><path d="M120 149v75" stroke="#67e8f9" stroke-width="5"/><path d="M79 161l41 63 42-63" fill="none" stroke="#fff" stroke-opacity=".16" stroke-width="5"/>
    <rect x="105" y="132" width="30" height="37" rx="13" fill="#c99175"/>
    <ellipse cx="120" cy="96" rx="55" ry="64" fill="#c99175"/>
    <ellipse cx="64" cy="102" rx="9" ry="15" fill="#c99175"/><ellipse cx="176" cy="102" rx="9" ry="15" fill="#c99175"/>
    <path d="M51 104c0-53 25-80 69-80s70 29 70 82l-25 16-9-43c-11-14-24-21-39-21-17 0-29 8-40 23l-8 42Z" fill="#251a20"/><path d="M118 27v36" stroke="#fff" stroke-opacity=".12" stroke-width="4"/>
    <path d="M91 93q10-7 20 0M129 93q10-7 20 0" fill="none" stroke="#20140f" stroke-width="4" stroke-linecap="round"/>
    <ellipse cx="101" cy="101" rx="3.6" ry="4.5" fill="#090b10"/><ellipse cx="139" cy="101" rx="3.6" ry="4.5" fill="#090b10"/>
    <path d="M120 104q-5 14 2 19" fill="none" stroke="#5b3428" stroke-opacity=".55" stroke-width="3" stroke-linecap="round"/>
    <path d="M100 133q20 15 40 0" fill="none" stroke="#3b1718" stroke-width="4" stroke-linecap="round"/>
    <path d="M102 136q18 8 36 0" fill="none" stroke="#fff" stroke-opacity=".55" stroke-width="2" stroke-linecap="round"/>
    <circle cx="202" cy="202" r="18" fill="#020617" fill-opacity=".6" stroke="#67e8f9" stroke-opacity=".65"/><path d="m193 202 6 6 12-14" fill="none" stroke="#67e8f9" stroke-width="4" stroke-linecap="round" stroke-linejoin="round"/>
    </svg>